
<?xml version="1.0" standalone="no"?>
<!DOCTYPE svg PUBLIC "-//W3C//DTD SVG 20010904//EN"
 "http://www.w3.org/TR/2001/REC-SVG-20010904/DTD/svg10.dtd">
<svg version="1.0" xmlns="http://www.w3.org/2000/svg"
 width="300.000000pt" height="267.000000pt" viewBox="0 0 300.000000 267.000000"
 preserveAspectRatio="xMidYMid meet">
<metadata>
Created by potrace 1.10, written by Peter Selinger 2001-2011
</metadata>
<g transform="translate(0.000000,267.000000) scale(0.100000,-0.100000)"
fill="#000000" stroke="none">
<path d="M1080 1534 c-54 -17 -53 -17 -44 -3 4 7 -2 9 -17 7 -12 -1 -24 -9
-25 -16 -1 -7 0 -8 2 -3 3 5 14 2 25 -7 15 -13 19 -30 19 -89 0 -45 -4 -73
-11 -73 -5 0 -7 6 -3 13 5 8 3 8 -7 -1 -12 -11 -12 -15 3 -26 22 -16 23 -130
1 -152 -20 -19 -11 -29 15 -15 10 5 29 7 40 4 21 -5 21 -4 7 23 -17 32 -21
134 -5 134 6 0 10 -28 10 -65 0 -36 5 -74 12 -85 16 -25 2 -38 -24 -21 -14 9
-23 10 -31 2 -18 -18 -37 -13 -47 12 l-9 22 0 -22 c-1 -12 5 -25 12 -30 6 -4
63 -8 125 -9 107 -1 112 0 112 20 0 12 -7 30 -16 41 -10 13 -13 32 -9 55 4 24
0 46 -13 71 -17 34 -17 36 0 65 23 38 23 71 -2 112 -20 32 -27 36 -65 33 -17
-2 -17 0 -5 8 20 14 4 13 -50 -5z m115 -65 c5 -20 0 -43 -13 -69 -16 -33 -17
-42 -6 -51 8 -6 14 -21 13 -33 0 -21 0 -21 -9 -1 -4 12 -15 27 -24 34 -14 12
-14 15 4 38 25 32 26 90 3 123 l-17 25 22 -19 c11 -10 24 -31 27 -47z m-49 14
c8 -30 -7 -105 -22 -110 -16 -5 -18 98 -2 108 16 10 3 23 -17 16 -11 -5 -15
-21 -15 -61 0 -63 7 -86 26 -86 24 0 36 -40 32 -107 l-3 -66 33 -3 c30 -4 32
-3 18 12 -17 17 -20 57 -6 89 6 15 9 6 9 -32 1 -31 6 -53 12 -53 6 0 9 -8 7
-17 -2 -13 -13 -18 -41 -18 -21 0 -37 5 -37 11 0 7 -7 14 -15 18 -11 4 -15 21
-15 67 0 49 3 60 14 56 24 -10 8 19 -20 33 -22 12 -24 19 -24 86 0 58 3 75 17
82 23 14 42 4 49 -25z"/>
<path d="M2120 1535 c-19 -7 -29 -14 -21 -14 8 -1 12 -3 9 -6 -8 -9 -38 6 -32
16 3 5 -6 9 -20 9 -18 0 -26 -5 -26 -18 0 -24 26 -59 37 -49 4 5 -1 15 -11 23
-11 8 -15 14 -10 14 23 0 34 -27 34 -84 0 -34 -4 -67 -9 -75 -6 -9 -8 9 -6 50
4 63 4 63 -4 10 -4 -29 -5 -83 -2 -120 5 -66 5 -66 12 -21 l6 45 1 -48 c2 -53
-9 -81 -33 -91 -11 -4 -14 -2 -9 7 5 9 4 9 -5 1 -9 -9 -10 -17 -2 -31 9 -18
21 -20 130 -20 104 0 121 2 121 16 0 9 -7 25 -15 35 -9 12 -15 41 -15 71 0 28
-6 59 -12 68 -11 15 -12 4 -10 -58 2 -41 8 -75 13 -75 5 0 9 -8 9 -18 0 -14
-8 -17 -40 -17 -24 0 -40 4 -40 11 0 7 -7 14 -15 18 -11 4 -15 21 -15 66 0 47
3 60 15 60 8 0 15 5 15 10 0 6 -7 10 -15 10 -8 0 -15 5 -15 10 0 5 -6 9 -12 8
-9 -2 -14 18 -16 68 -2 60 0 73 17 88 31 28 51 6 51 -54 0 -56 -7 -80 -24 -80
-7 0 -10 18 -8 55 2 31 9 55 15 55 8 0 7 4 -1 12 -18 18 -30 0 -38 -59 -6 -50
-5 -54 25 -80 30 -26 31 -31 31 -103 l0 -75 32 -2 c24 -2 29 0 20 9 -7 7 -12
40 -12 75 0 49 -4 67 -19 82 -19 19 -19 20 2 62 20 40 20 44 4 88 -16 46 -16
46 4 22 23 -29 25 -88 3 -120 -11 -14 -13 -26 -7 -32 12 -12 36 22 47 64 8 33
-13 77 -50 106 -31 24 -36 24 -84 6z m17 -348 c22 -23 4 -44 -24 -29 -12 7
-25 7 -34 1 -7 -5 -21 -9 -29 -8 -9 0 -5 6 10 14 14 8 38 12 55 9 25 -4 27 -3
13 6 -15 9 -18 24 -16 83 l2 72 3 -65 c3 -41 10 -71 20 -83z"/>
<path d="M243 1515 c0 -13 6 -30 13 -36 17 -14 18 2 2 20 -11 10 -9 11 5 5 15
-5 17 -18 16 -85 -1 -43 -6 -76 -10 -73 -13 7 -11 -10 2 -23 5 -5 9 -38 7 -74
-3 -55 -6 -64 -20 -61 -23 4 -25 -40 -3 -58 12 -10 19 -9 38 3 20 13 26 13 49
1 49 -26 98 17 113 98 6 29 2 46 -14 73 l-21 35 21 40 c18 33 19 45 10 73 -16
47 -61 88 -93 85 -15 -1 -25 -5 -22 -9 8 -14 -16 -20 -53 -13 -31 6 -34 8 -18
15 19 7 19 8 -1 8 -16 1 -21 -5 -21 -24z m166 -11 c25 -32 28 -90 6 -122 -14
-19 -14 -25 1 -53 23 -45 15 -121 -16 -154 -25 -27 -68 -33 -88 -13 -9 9 -15
9 -24 0 -7 -7 -19 -12 -27 -12 -10 1 -6 6 10 15 21 12 32 12 59 2 30 -11 33
-10 61 21 36 40 40 105 10 143 -19 24 -19 25 0 48 28 34 25 96 -6 126 -13 14
-20 25 -15 25 5 0 18 -12 29 -26z m-29 -13 c5 -11 10 -38 10 -60 0 -31 -6 -46
-27 -65 -15 -14 -30 -23 -35 -20 -13 8 -10 138 4 152 18 18 36 15 48 -7z m7
-208 c6 -64 -10 -105 -40 -101 -20 3 -22 8 -23 78 l-1 75 6 -69 c8 -91 27 -99
23 -10 -3 50 -1 64 8 59 9 -5 10 -1 5 16 -6 19 -5 22 5 12 7 -6 15 -33 17 -60z"/>
<path d="M337 1493 c-13 -12 -8 -123 6 -123 8 0 11 16 9 55 -3 37 0 55 8 55 6
0 8 5 5 10 -7 12 -19 13 -28 3z"/>
<path d="M494 1508 c1 -31 26 -64 26 -36 0 9 -5 19 -10 21 -6 3 -5 4 2 3 18
-4 24 -135 7 -150 -9 -8 -10 -6 -5 9 6 16 5 17 -5 8 -10 -10 -9 -16 3 -30 11
-13 16 -37 15 -80 0 -60 -2 -63 -24 -63 -19 0 -24 -5 -21 -21 5 -32 33 -47 59
-31 15 10 24 11 32 3 13 -13 64 -15 71 -2 3 5 14 7 24 5 14 -4 17 3 20 46 3
63 -10 90 -44 88 -23 -2 -25 -6 -22 -42 3 -42 -16 -64 -46 -53 -13 5 -16 20
-14 79 l2 73 5 -69 c8 -88 26 -98 26 -14 0 59 1 63 23 62 13 0 22 5 22 14 0 9
-7 13 -20 9 -17 -4 -18 -2 -9 14 5 10 12 19 15 19 3 0 2 -4 -1 -10 -3 -5 -1
-10 4 -10 6 0 11 7 11 16 0 12 -7 15 -23 12 -21 -4 -24 0 -26 35 -1 28 3 43
16 52 14 11 15 16 6 26 -10 10 -15 9 -28 -1 -17 -14 -22 -115 -5 -125 6 -4 8
-11 4 -16 -13 -22 -24 7 -24 66 0 77 22 109 58 86 10 -6 11 -19 6 -46 -6 -33
-4 -37 12 -33 11 2 22 15 26 33 6 29 6 29 5 -5 -2 -28 -6 -36 -25 -38 -26 -4
-20 -22 7 -22 32 0 42 23 35 83 -6 54 -7 55 -43 60 -26 4 -44 -1 -64 -15 -23
-16 -31 -17 -40 -8 -9 10 -8 12 6 7 9 -4 17 -3 17 2 0 5 -15 11 -34 13 -31 3
-33 2 -32 -24z m97 -348 c8 0 24 7 36 15 12 8 24 12 27 7 9 -14 -53 -34 -82
-26 -30 8 -30 8 -57 -2 -16 -6 -15 -3 5 14 22 18 27 19 41 6 8 -8 22 -14 30
-14z"/>
<path d="M780 1515 c0 -14 5 -25 11 -25 5 0 7 5 3 12 -4 7 -3 8 4 4 14 -8 16
-66 3 -66 -4 0 -6 -11 -3 -25 3 -18 -2 -30 -18 -43 -19 -16 -21 -22 -11 -40 9
-17 9 -32 0 -65 -7 -23 -13 -49 -13 -57 -1 -8 -9 -14 -19 -13 -10 0 -16 -2
-13 -5 3 -3 1 -11 -6 -19 -18 -22 6 -38 62 -39 46 -1 50 1 50 22 0 13 -4 26
-10 29 -5 3 -10 19 -10 36 0 22 5 29 19 29 11 0 22 -8 25 -17 3 -11 4 -7 3 7
-2 19 -8 26 -29 28 -19 2 -28 -2 -31 -15 -3 -15 -4 -14 -3 2 1 16 9 21 39 23
l37 3 0 -46 c0 -25 -4 -44 -8 -41 -4 2 -9 -4 -9 -15 -2 -22 8 -24 25 -7 9 9
18 9 36 0 19 -8 26 -8 30 1 2 7 5 4 5 -7 1 -15 -4 -17 -25 -12 -30 8 -87 -2
-79 -13 2 -4 31 -8 65 -8 65 -1 77 12 44 48 -9 10 -19 50 -25 101 -5 45 -13
106 -18 133 -13 69 -13 75 4 75 8 0 15 6 15 14 0 23 -28 40 -44 27 -7 -6 -22
-9 -32 -5 -16 5 -17 4 -4 -6 13 -10 12 -11 -3 -6 -10 3 -24 6 -30 6 -7 0 -6 4
3 10 12 8 9 10 -12 10 -23 0 -28 -4 -28 -25z m126 -12 c-16 -4 -18 -12 -13
-66 3 -34 8 -71 12 -82 6 -14 5 -17 -3 -10 -13 12 -35 142 -27 156 4 5 16 8
28 8 19 -1 19 -2 3 -6z m-58 -78 c6 -34 6 -66 1 -75 -6 -10 -9 1 -10 35 -1 49
-1 49 -9 15 -5 -19 -6 -38 -4 -42 2 -3 0 -9 -6 -13 -5 -3 -10 -1 -10 6 0 22
22 140 26 137 2 -2 7 -31 12 -63z m83 -229 c8 -14 8 -17 -3 -14 -16 6 -26 47
-26 108 0 42 1 41 9 -15 5 -33 14 -68 20 -79z m-121 -26 c0 -11 -12 -15 -45
-16 -41 -1 -43 0 -23 11 14 7 30 8 41 3 18 -9 25 6 7 17 -5 3 -10 14 -10 23 0
13 2 13 15 -4 8 -10 15 -26 15 -34z"/>
<path d="M1272 1508 c2 -17 9 -34 17 -36 10 -3 12 0 8 12 -4 9 -2 16 3 16 15
0 13 -147 -2 -153 -10 -4 -10 -7 0 -18 16 -17 17 -143 0 -133 -7 4 -8 3 -4 -4
4 -7 3 -12 -3 -12 -5 0 -11 6 -14 13 -2 6 -4 -4 -3 -23 2 -32 4 -35 31 -33 45
4 47 4 81 -3 26 -5 35 -1 53 22 48 61 70 222 40 298 -17 44 -48 76 -67 69 -9
-4 -13 -2 -9 4 4 7 -2 10 -17 9 -13 0 -23 -3 -21 -6 2 -3 -18 -6 -43 -6 -33
-1 -41 1 -27 6 19 8 19 9 -3 9 -20 1 -23 -3 -20 -31z m169 -10 c14 -26 40
-141 33 -147 -9 -10 -16 11 -23 66 -4 32 -13 68 -19 81 -7 12 -10 22 -8 22 3
0 11 -10 17 -22z m-31 -7 c5 -11 10 -47 10 -79 l0 -60 -35 0 -35 0 0 67 c0 66
10 91 37 91 7 0 17 -9 23 -19z m10 -229 c0 -53 -25 -90 -55 -79 -12 5 -15 22
-13 79 l2 73 5 -69 c7 -87 27 -101 23 -16 -2 34 -1 68 2 76 12 31 36 -11 36
-64z m41 4 c-6 -30 -18 -67 -27 -81 -20 -31 -60 -42 -87 -26 -14 9 -22 10 -30
2 -6 -6 -17 -11 -25 -11 -9 0 -4 9 12 21 26 20 28 20 40 4 9 -13 20 -16 39
-11 34 8 58 44 64 98 6 52 12 73 19 65 3 -3 1 -30 -5 -61z"/>
<path d="M1372 1488 c-14 -14 -16 -114 -3 -123 6 -3 11 19 13 52 2 44 6 57 17
55 12 -3 12 0 1 12 -15 19 -13 19 -28 4z"/>
<path d="M1636 1533 c-4 -4 -25 -8 -47 -9 -23 -1 -46 -7 -51 -12 -13 -13 -3
-42 13 -42 6 0 9 7 5 15 -3 8 -1 15 4 15 6 0 10 -35 10 -80 0 -52 -4 -80 -11
-80 -8 0 -8 -4 0 -14 7 -9 11 -40 9 -78 -2 -50 -6 -62 -18 -61 -21 4 -24 -41
-5 -57 12 -10 20 -9 38 3 20 13 26 13 51 0 24 -13 30 -13 51 1 51 34 74 126
43 169 -11 15 -12 10 -10 -30 3 -37 -2 -56 -20 -83 -26 -38 -68 -51 -94 -29
-11 9 -18 9 -26 1 -7 -7 -19 -12 -27 -12 -11 0 -8 5 7 16 19 13 28 14 52 4 38
-16 55 -9 80 32 26 43 26 98 -1 132 l-20 26 20 26 c25 32 27 80 5 114 l-16 25
21 -24 c26 -29 27 -82 4 -122 -13 -23 -15 -31 -5 -41 9 -9 12 -9 12 4 0 8 7
21 15 28 19 16 19 73 0 110 -23 44 -70 72 -89 53z m32 -91 c3 -55 0 -65 -20
-82 -13 -11 -26 -19 -30 -20 -13 0 -9 145 4 158 28 28 43 9 46 -56z m1 -172
c0 -30 -3 -63 -5 -72 -6 -21 -43 -24 -49 -5 -8 26 -11 127 -4 127 5 0 9 -28
11 -62 2 -34 8 -63 13 -65 6 -2 9 22 7 63 -3 50 -1 64 8 59 9 -5 10 -1 5 16
-5 18 -4 20 4 9 6 -8 10 -40 10 -70z"/>
<path d="M1627 1493 c-13 -12 -8 -123 6 -123 8 0 11 16 9 55 -3 37 0 55 8 55
6 0 8 5 5 10 -7 12 -19 13 -28 3z"/>
<path d="M1773 1528 c1 -7 9 -19 18 -25 13 -10 16 -26 13 -75 -2 -35 -4 -70
-4 -78 0 -13 -1 -13 -10 0 -5 8 -10 10 -10 5 0 -6 5 -16 12 -23 7 -7 11 -35 9
-68 -3 -68 22 -104 75 -104 44 0 57 20 64 103 l7 72 2 -62 c2 -101 -24 -132
-101 -121 -28 5 -29 4 -13 -9 28 -19 82 -16 104 6 20 20 26 42 36 144 5 52 3
58 -12 55 -27 -5 -32 125 -6 155 18 20 17 20 -4 15 -13 -4 -26 -2 -29 3 -3 5
9 9 25 9 34 0 39 -13 16 -36 -17 -18 -21 -119 -5 -129 6 -4 10 12 10 41 0 30
6 54 16 65 11 12 14 27 10 43 -6 24 -10 26 -65 24 -44 -1 -58 -5 -54 -15 3 -7
-2 -20 -11 -28 -18 -19 -23 -120 -6 -130 6 -4 8 -11 4 -16 -13 -22 -24 7 -24
68 0 47 5 72 16 84 9 10 13 23 9 29 -5 8 -11 6 -19 -6 -11 -14 -16 -15 -32 -5
-16 10 -16 12 -1 7 9 -3 17 -1 17 4 0 6 -13 10 -30 10 -19 0 -29 -5 -27 -12z
m147 -102 c0 -64 -3 -76 -17 -76 -15 0 -15 -1 0 -18 18 -20 22 -119 5 -139
-15 -18 -55 -16 -62 3 -3 9 -5 43 -4 77 l2 62 5 -70 c6 -66 7 -70 31 -72 14
-1 17 1 8 3 -14 5 -16 22 -16 141 0 124 1 136 19 140 14 4 16 9 9 23 -14 27
-12 34 5 16 11 -10 15 -36 15 -90z"/>
<path d="M2300 1521 c0 -10 8 -25 18 -32 16 -13 16 -13 2 5 -13 17 -13 19 0
14 21 -7 50 -87 45 -123 -4 -24 -3 -26 4 -10 8 17 10 18 10 3 1 -27 0 -33 -7
-31 -4 1 -5 -26 -2 -60 l4 -62 7 50 6 50 1 -47 c2 -59 -13 -102 -33 -94 -8 3
-15 1 -15 -4 0 -16 19 -21 41 -9 16 8 28 8 45 0 27 -12 31 -6 9 15 -11 11 -14
34 -13 77 l2 62 3 -60 c3 -43 10 -66 25 -82 18 -20 19 -23 5 -29 -9 -3 -24 -1
-34 4 -11 7 -24 7 -36 0 -10 -5 -25 -7 -34 -4 -9 4 -13 1 -11 -6 3 -9 29 -14
76 -15 78 -2 85 4 55 47 -40 57 -2 290 48 290 22 0 27 38 7 58 -14 14 -57 16
-77 3 -12 -7 -12 -13 -3 -24 9 -11 8 -24 -4 -60 -9 -26 -19 -49 -24 -52 -8 -5
-40 71 -40 95 0 9 9 21 20 28 11 7 20 8 20 3 0 -6 -7 -14 -15 -18 -13 -8 -14
-14 -1 -48 11 -32 15 -36 21 -22 4 10 5 21 1 24 -3 3 -2 11 3 17 5 6 7 23 4
39 -5 26 -7 27 -69 27 -56 0 -64 -2 -64 -19z m213 2 c4 -3 -2 -16 -12 -27 -20
-22 -63 -120 -58 -135 1 -5 -2 -9 -8 -9 -12 0 -11 7 17 78 11 30 29 63 40 72
18 16 18 17 -9 21 -28 4 -28 4 -2 6 14 0 29 -2 32 -6z"/>
<path d="M2642 1529 c-19 -6 -37 -20 -44 -34 -6 -13 -14 -23 -17 -21 -3 2 -6
-21 -5 -51 1 -46 5 -58 29 -81 l28 -27 -26 33 c-15 19 -27 39 -27 45 0 7 6 3
12 -8 6 -11 22 -31 35 -44 20 -19 22 -26 11 -33 -9 -7 -7 -8 10 -5 42 10 69
-65 39 -108 -10 -13 -21 -16 -41 -11 -22 5 -27 12 -26 39 0 53 -3 63 -21 64
-28 2 -45 -25 -31 -48 7 -10 12 -25 12 -33 0 -18 54 -46 87 -46 35 0 65 53 61
112 -2 25 0 44 5 41 13 -8 8 -93 -8 -122 -16 -31 -33 -41 -71 -41 -14 0 -22
-4 -19 -10 8 -13 51 -13 76 0 27 15 49 63 49 107 0 39 -25 88 -40 78 -11 -7
-33 22 -25 35 3 5 -2 10 -14 10 -45 0 -80 91 -46 120 28 23 50 8 50 -35 0 -29
4 -40 15 -40 10 0 16 12 18 38 3 30 -2 42 -20 57 l-23 20 25 -9 c48 -16 47
-130 -1 -118 -11 3 -19 0 -19 -7 0 -18 59 -7 69 13 14 26 -10 121 -30 121 -10
0 -23 2 -31 4 -7 2 -28 0 -46 -5z"/>
<path d="M2642 1478 c-7 -7 -12 -21 -12 -32 1 -19 1 -19 11 -3 5 9 17 17 24
17 8 0 15 7 15 15 0 18 -21 20 -38 3z"/>
<path d="M2635 1240 c3 -58 4 -60 16 -32 6 16 5 31 -5 50 -14 26 -14 26 -11
-18z"/>
<path d="M2580 1150 c0 -11 4 -20 9 -20 13 0 32 26 24 33 -13 14 -33 6 -33
-13z"/>
</g>
</svg>
